# This file uses centimeters as units for non-parametric coordinates.

g default
v -299.394239 196.694458 -70.468290
v -233.774025 196.694458 -41.729096
v -168.153812 196.694458 -12.989902
v -102.533580 196.694458 15.749300
v -36.913366 196.694458 44.488494
v 28.706847 196.694458 73.227688
v 94.327079 196.694458 101.966890
v 159.947273 196.694458 130.706076
v 225.567506 196.694458 159.445278
v 291.187738 196.694458 188.184480
v 356.807932 196.694458 216.923666
v -256.191193 196.694458 -169.113821
v -190.570980 196.694458 -140.374628
v -124.950767 196.694458 -111.635434
v -59.330534 196.694458 -82.896231
v 6.289679 196.694458 -54.157038
v 71.909892 196.694458 -25.417844
v 137.530125 196.694458 3.321359
v 203.150319 196.694458 32.060544
v 268.770551 196.694458 60.799746
v 334.390784 196.694458 89.538949
v 400.010978 196.694458 118.278134
v -212.988148 196.694458 -267.759353
v -147.367934 196.694458 -239.020159
v -81.747721 196.694458 -210.280965
v -16.127489 196.694458 -181.541763
v 49.492725 196.694458 -152.802569
v 115.112938 196.694458 -124.063375
v 180.733170 196.694458 -95.324173
v 246.353364 196.694458 -66.584988
v 311.973597 196.694458 -37.845785
v 377.593829 196.694458 -9.106583
v 443.214023 196.694458 19.632602
v -169.785089 196.694458 -366.404914
v -104.164876 196.694458 -337.665720
v -38.544663 196.694458 -308.926527
v 27.075570 196.694458 -280.187324
v 92.695783 196.694458 -251.448130
v 158.315996 196.694458 -222.708937
v 223.936229 196.694458 -193.969734
v 289.556422 196.694458 -165.230549
v 355.176655 196.694458 -136.491347
v 420.796888 196.694458 -107.752144
v 486.417081 196.694458 -79.012959
v -126.582044 196.694458 -465.050446
v -60.961830 196.694458 -436.311252
v 4.658383 196.694458 -407.572058
v 70.278615 196.694458 -378.832856
v 135.898828 196.694458 -350.093662
v 201.519042 196.694458 -321.354468
v 267.139274 196.694458 -292.615266
v 332.759468 196.694458 -263.876081
v 398.379701 196.694458 -235.136878
v 463.999933 196.694458 -206.397676
v 529.620127 196.694458 -177.658491
v -83.378998 196.694458 -563.695978
v -17.758785 196.694458 -534.956784
v 47.861428 196.694458 -506.217590
v 113.481661 196.694458 -477.478388
v 179.101874 196.694458 -448.739194
v 244.722087 196.694458 -420.000000
v 310.342320 196.694458 -391.260798
v 375.962513 196.694458 -362.521612
v 441.582746 196.694458 -333.782410
v 507.202979 196.694458 -305.043208
v 572.823172 196.694458 -276.304022
v -40.175940 196.694458 -662.341539
v 25.444273 196.694458 -633.602345
v 91.064487 196.694458 -604.863151
v 156.684719 196.694458 -576.123949
v 222.304932 196.694458 -547.384755
v 287.925146 196.694458 -518.645561
v 353.545378 196.694458 -489.906359
v 419.165572 196.694458 -461.167173
v 484.785804 196.694458 -432.427971
v 550.406037 196.694458 -403.688769
v 616.026231 196.694458 -374.949583
v 3.027093 196.694458 -760.987041
v 68.647306 196.694458 -732.247847
v 134.267519 196.694458 -703.508653
v 199.887752 196.694458 -674.769451
v 265.507965 196.694458 -646.030257
v 331.128178 196.694458 -617.291063
v 396.748411 196.694458 -588.551861
v 462.368604 196.694458 -559.812676
v 527.988837 196.694458 -531.073473
v 593.609070 196.694458 -502.334271
v 659.229263 196.694458 -473.595086
v 46.230151 196.694458 -859.632602
v 111.850364 196.694458 -830.893408
v 177.470578 196.694458 -802.154215
v 243.090810 196.694458 -773.415012
v 308.711023 196.694458 -744.675818
v 374.331237 196.694458 -715.936625
v 439.951469 196.694458 -687.197422
v 505.571663 196.694458 -658.458237
v 571.191895 196.694458 -629.719035
v 636.812128 196.694458 -600.979832
v 702.432322 196.694458 -572.240647
v 89.433210 196.694458 -958.278163
v 155.053423 196.694458 -929.538969
v 220.673636 196.694458 -900.799776
v 286.293869 196.694458 -872.060573
v 351.914082 196.694458 -843.321379
v 417.534295 196.694458 -814.582186
v 483.154528 196.694458 -785.842983
v 548.774721 196.694458 -757.103798
v 614.394954 196.694458 -728.364596
v 680.015187 196.694458 -699.625393
v 745.635380 196.694458 -670.886208
v 132.636242 196.694458 -1056.923666
v 198.256455 196.694458 -1028.184472
v 263.876669 196.694458 -999.445278
v 329.496901 196.694458 -970.706076
v 395.117114 196.694458 -941.966882
v 460.737328 196.694458 -913.227688
v 526.357560 196.694458 -884.488486
v 591.977754 196.694458 -855.749300
v 657.597987 196.694458 -827.010098
v 723.218219 196.694458 -798.270896
v 788.838413 196.694458 -769.531710
vt 0.000000 0.000000
vt 0.100000 0.000000
vt 0.200000 0.000000
vt 0.300000 0.000000
vt 0.400000 0.000000
vt 0.500000 0.000000
vt 0.600000 0.000000
vt 0.700000 0.000000
vt 0.800000 0.000000
vt 0.900000 0.000000
vt 1.000000 0.000000
vt 0.000000 0.100000
vt 0.100000 0.100000
vt 0.200000 0.100000
vt 0.300000 0.100000
vt 0.400000 0.100000
vt 0.500000 0.100000
vt 0.600000 0.100000
vt 0.700000 0.100000
vt 0.800000 0.100000
vt 0.900000 0.100000
vt 1.000000 0.100000
vt 0.000000 0.200000
vt 0.100000 0.200000
vt 0.200000 0.200000
vt 0.300000 0.200000
vt 0.400000 0.200000
vt 0.500000 0.200000
vt 0.600000 0.200000
vt 0.700000 0.200000
vt 0.800000 0.200000
vt 0.900000 0.200000
vt 1.000000 0.200000
vt 0.000000 0.300000
vt 0.100000 0.300000
vt 0.200000 0.300000
vt 0.300000 0.300000
vt 0.400000 0.300000
vt 0.500000 0.300000
vt 0.600000 0.300000
vt 0.700000 0.300000
vt 0.800000 0.300000
vt 0.900000 0.300000
vt 1.000000 0.300000
vt 0.000000 0.400000
vt 0.100000 0.400000
vt 0.200000 0.400000
vt 0.300000 0.400000
vt 0.400000 0.400000
vt 0.500000 0.400000
vt 0.600000 0.400000
vt 0.700000 0.400000
vt 0.800000 0.400000
vt 0.900000 0.400000
vt 1.000000 0.400000
vt 0.000000 0.500000
vt 0.100000 0.500000
vt 0.200000 0.500000
vt 0.300000 0.500000
vt 0.400000 0.500000
vt 0.500000 0.500000
vt 0.600000 0.500000
vt 0.700000 0.500000
vt 0.800000 0.500000
vt 0.900000 0.500000
vt 1.000000 0.500000
vt 0.000000 0.600000
vt 0.100000 0.600000
vt 0.200000 0.600000
vt 0.300000 0.600000
vt 0.400000 0.600000
vt 0.500000 0.600000
vt 0.600000 0.600000
vt 0.700000 0.600000
vt 0.800000 0.600000
vt 0.900000 0.600000
vt 1.000000 0.600000
vt 0.000000 0.700000
vt 0.100000 0.700000
vt 0.200000 0.700000
vt 0.300000 0.700000
vt 0.400000 0.700000
vt 0.500000 0.700000
vt 0.600000 0.700000
vt 0.700000 0.700000
vt 0.800000 0.700000
vt 0.900000 0.700000
vt 1.000000 0.700000
vt 0.000000 0.800000
vt 0.100000 0.800000
vt 0.200000 0.800000
vt 0.300000 0.800000
vt 0.400000 0.800000
vt 0.500000 0.800000
vt 0.600000 0.800000
vt 0.700000 0.800000
vt 0.800000 0.800000
vt 0.900000 0.800000
vt 1.000000 0.800000
vt 0.000000 0.900000
vt 0.100000 0.900000
vt 0.200000 0.900000
vt 0.300000 0.900000
vt 0.400000 0.900000
vt 0.500000 0.900000
vt 0.600000 0.900000
vt 0.700000 0.900000
vt 0.800000 0.900000
vt 0.900000 0.900000
vt 1.000000 0.900000
vt 0.000000 1.000000
vt 0.100000 1.000000
vt 0.200000 1.000000
vt 0.300000 1.000000
vt 0.400000 1.000000
vt 0.500000 1.000000
vt 0.600000 1.000000
vt 0.700000 1.000000
vt 0.800000 1.000000
vt 0.900000 1.000000
vt 1.000000 1.000000
vn 0.000000 1.000000 0.000000
vn 0.000000 1.000000 0.000000
vn 0.000000 1.000000 0.000000
vn 0.000000 1.000000 0.000000
vn 0.000000 1.000000 0.000000
vn 0.000000 1.000000 0.000000
vn 0.000000 1.000000 0.000000
vn 0.000000 1.000000 0.000000
vn 0.000000 1.000000 0.000000
vn 0.000000 1.000000 0.000000
vn 0.000000 1.000000 0.000000
vn 0.000000 1.000000 0.000000
vn 0.000000 1.000000 0.000000
vn 0.000000 1.000000 0.000000
vn 0.000000 1.000000 0.000000
vn 0.000000 1.000000 0.000000
vn 0.000000 1.000000 0.000000
vn 0.000000 1.000000 0.000000
vn 0.000000 1.000000 0.000000
vn 0.000000 1.000000 0.000000
vn 0.000000 1.000000 0.000000
vn 0.000000 1.000000 0.000000
vn 0.000000 1.000000 0.000000
vn 0.000000 1.000000 0.000000
vn 0.000000 1.000000 0.000000
vn 0.000000 1.000000 0.000000
vn 0.000000 1.000000 0.000000
vn 0.000000 1.000000 0.000000
vn 0.000000 1.000000 0.000000
vn 0.000000 1.000000 0.000000
vn 0.000000 1.000000 0.000000
vn 0.000000 1.000000 0.000000
vn 0.000000 1.000000 0.000000
vn 0.000000 1.000000 0.000000
vn 0.000000 1.000000 0.000000
vn 0.000000 1.000000 0.000000
vn 0.000000 1.000000 0.000000
vn 0.000000 1.000000 0.000000
vn 0.000000 1.000000 0.000000
vn 0.000000 1.000000 0.000000
vn 0.000000 1.000000 0.000000
vn 0.000000 1.000000 0.000000
vn 0.000000 1.000000 0.000000
vn 0.000000 1.000000 0.000000
vn 0.000000 1.000000 0.000000
vn 0.000000 1.000000 0.000000
vn 0.000000 1.000000 0.000000
vn 0.000000 1.000000 0.000000
vn 0.000000 1.000000 0.000000
vn 0.000000 1.000000 0.000000
vn 0.000000 1.000000 0.000000
vn 0.000000 1.000000 0.000000
vn 0.000000 1.000000 0.000000
vn 0.000000 1.000000 0.000000
vn 0.000000 1.000000 0.000000
vn 0.000000 1.000000 0.000000
vn 0.000000 1.000000 0.000000
vn 0.000000 1.000000 0.000000
vn 0.000000 1.000000 0.000000
vn 0.000000 1.000000 0.000000
vn 0.000000 1.000000 0.000000
vn 0.000000 1.000000 0.000000
vn 0.000000 1.000000 0.000000
vn 0.000000 1.000000 0.000000
vn 0.000000 1.000000 0.000000
vn 0.000000 1.000000 0.000000
vn 0.000000 1.000000 0.000000
vn 0.000000 1.000000 0.000000
vn 0.000000 1.000000 0.000000
vn 0.000000 1.000000 0.000000
vn 0.000000 1.000000 0.000000
vn 0.000000 1.000000 0.000000
vn 0.000000 1.000000 0.000000
vn 0.000000 1.000000 0.000000
vn 0.000000 1.000000 0.000000
vn 0.000000 1.000000 0.000000
vn 0.000000 1.000000 0.000000
vn 0.000000 1.000000 0.000000
vn 0.000000 1.000000 0.000000
vn 0.000000 1.000000 0.000000
vn 0.000000 1.000000 0.000000
vn 0.000000 1.000000 0.000000
vn 0.000000 1.000000 0.000000
vn 0.000000 1.000000 0.000000
vn 0.000000 1.000000 0.000000
vn 0.000000 1.000000 0.000000
vn 0.000000 1.000000 0.000000
vn 0.000000 1.000000 0.000000
vn 0.000000 1.000000 0.000000
vn 0.000000 1.000000 0.000000
vn 0.000000 1.000000 0.000000
vn 0.000000 1.000000 0.000000
vn 0.000000 1.000000 0.000000
vn 0.000000 1.000000 0.000000
vn 0.000000 1.000000 0.000000
vn 0.000000 1.000000 0.000000
vn 0.000000 1.000000 0.000000
vn 0.000000 1.000000 0.000000
vn 0.000000 1.000000 0.000000
vn 0.000000 1.000000 0.000000
vn 0.000000 1.000000 0.000000
vn 0.000000 1.000000 0.000000
vn 0.000000 1.000000 0.000000
vn 0.000000 1.000000 0.000000
vn 0.000000 1.000000 0.000000
vn 0.000000 1.000000 0.000000
vn 0.000000 1.000000 0.000000
vn 0.000000 1.000000 0.000000
vn 0.000000 1.000000 0.000000
vn 0.000000 1.000000 0.000000
vn 0.000000 1.000000 0.000000
vn 0.000000 1.000000 0.000000
vn 0.000000 1.000000 0.000000
vn 0.000000 1.000000 0.000000
vn 0.000000 1.000000 0.000000
vn 0.000000 1.000000 0.000000
vn 0.000000 1.000000 0.000000
vn 0.000000 1.000000 0.000000
vn 0.000000 1.000000 0.000000
vn 0.000000 1.000000 0.000000
vn 0.000000 1.000000 0.000000
s 1
g light
f 1/1/1 2/2/2 12/12/3
f 12/12/3 2/2/2 13/13/4
f 2/2/2 3/3/5 13/13/4
f 13/13/4 3/3/5 14/14/6
f 3/3/5 4/4/7 14/14/6
f 14/14/6 4/4/7 15/15/8
f 4/4/7 5/5/9 15/15/8
f 15/15/8 5/5/9 16/16/10
f 5/5/9 6/6/11 16/16/10
f 16/16/10 6/6/11 17/17/12
f 6/6/11 7/7/13 17/17/12
f 17/17/12 7/7/13 18/18/14
f 7/7/13 8/8/15 18/18/14
f 18/18/14 8/8/15 19/19/16
f 8/8/15 9/9/17 19/19/16
f 19/19/16 9/9/17 20/20/18
f 9/9/17 10/10/19 20/20/18
f 20/20/18 10/10/19 21/21/20
f 10/10/19 11/11/21 21/21/20
f 21/21/20 11/11/21 22/22/22
f 12/12/3 13/13/4 23/23/23
f 23/23/23 13/13/4 24/24/24
f 13/13/4 14/14/6 24/24/24
f 24/24/24 14/14/6 25/25/25
f 14/14/6 15/15/8 25/25/25
f 25/25/25 15/15/8 26/26/26
f 15/15/8 16/16/10 26/26/26
f 26/26/26 16/16/10 27/27/27
f 16/16/10 17/17/12 27/27/27
f 27/27/27 17/17/12 28/28/28
f 17/17/12 18/18/14 28/28/28
f 28/28/28 18/18/14 29/29/29
f 18/18/14 19/19/16 29/29/29
f 29/29/29 19/19/16 30/30/30
f 19/19/16 20/20/18 30/30/30
f 30/30/30 20/20/18 31/31/31
f 20/20/18 21/21/20 31/31/31
f 31/31/31 21/21/20 32/32/32
f 21/21/20 22/22/22 32/32/32
f 32/32/32 22/22/22 33/33/33
f 23/23/23 24/24/24 34/34/34
f 34/34/34 24/24/24 35/35/35
f 24/24/24 25/25/25 35/35/35
f 35/35/35 25/25/25 36/36/36
f 25/25/25 26/26/26 36/36/36
f 36/36/36 26/26/26 37/37/37
f 26/26/26 27/27/27 37/37/37
f 37/37/37 27/27/27 38/38/38
f 27/27/27 28/28/28 38/38/38
f 38/38/38 28/28/28 39/39/39
f 28/28/28 29/29/29 39/39/39
f 39/39/39 29/29/29 40/40/40
f 29/29/29 30/30/30 40/40/40
f 40/40/40 30/30/30 41/41/41
f 30/30/30 31/31/31 41/41/41
f 41/41/41 31/31/31 42/42/42
f 31/31/31 32/32/32 42/42/42
f 42/42/42 32/32/32 43/43/43
f 32/32/32 33/33/33 43/43/43
f 43/43/43 33/33/33 44/44/44
f 34/34/34 35/35/35 45/45/45
f 45/45/45 35/35/35 46/46/46
f 35/35/35 36/36/36 46/46/46
f 46/46/46 36/36/36 47/47/47
f 36/36/36 37/37/37 47/47/47
f 47/47/47 37/37/37 48/48/48
f 37/37/37 38/38/38 48/48/48
f 48/48/48 38/38/38 49/49/49
f 38/38/38 39/39/39 49/49/49
f 49/49/49 39/39/39 50/50/50
f 39/39/39 40/40/40 50/50/50
f 50/50/50 40/40/40 51/51/51
f 40/40/40 41/41/41 51/51/51
f 51/51/51 41/41/41 52/52/52
f 41/41/41 42/42/42 52/52/52
f 52/52/52 42/42/42 53/53/53
f 42/42/42 43/43/43 53/53/53
f 53/53/53 43/43/43 54/54/54
f 43/43/43 44/44/44 54/54/54
f 54/54/54 44/44/44 55/55/55
f 45/45/45 46/46/46 56/56/56
f 56/56/56 46/46/46 57/57/57
f 46/46/46 47/47/47 57/57/57
f 57/57/57 47/47/47 58/58/58
f 47/47/47 48/48/48 58/58/58
f 58/58/58 48/48/48 59/59/59
f 48/48/48 49/49/49 59/59/59
f 59/59/59 49/49/49 60/60/60
f 49/49/49 50/50/50 60/60/60
f 60/60/60 50/50/50 61/61/61
f 50/50/50 51/51/51 61/61/61
f 61/61/61 51/51/51 62/62/62
f 51/51/51 52/52/52 62/62/62
f 62/62/62 52/52/52 63/63/63
f 52/52/52 53/53/53 63/63/63
f 63/63/63 53/53/53 64/64/64
f 53/53/53 54/54/54 64/64/64
f 64/64/64 54/54/54 65/65/65
f 54/54/54 55/55/55 65/65/65
f 65/65/65 55/55/55 66/66/66
f 56/56/56 57/57/57 67/67/67
f 67/67/67 57/57/57 68/68/68
f 57/57/57 58/58/58 68/68/68
f 68/68/68 58/58/58 69/69/69
f 58/58/58 59/59/59 69/69/69
f 69/69/69 59/59/59 70/70/70
f 59/59/59 60/60/60 70/70/70
f 70/70/70 60/60/60 71/71/71
f 60/60/60 61/61/61 71/71/71
f 71/71/71 61/61/61 72/72/72
f 61/61/61 62/62/62 72/72/72
f 72/72/72 62/62/62 73/73/73
f 62/62/62 63/63/63 73/73/73
f 73/73/73 63/63/63 74/74/74
f 63/63/63 64/64/64 74/74/74
f 74/74/74 64/64/64 75/75/75
f 64/64/64 65/65/65 75/75/75
f 75/75/75 65/65/65 76/76/76
f 65/65/65 66/66/66 76/76/76
f 76/76/76 66/66/66 77/77/77
f 67/67/67 68/68/68 78/78/78
f 78/78/78 68/68/68 79/79/79
f 68/68/68 69/69/69 79/79/79
f 79/79/79 69/69/69 80/80/80
f 69/69/69 70/70/70 80/80/80
f 80/80/80 70/70/70 81/81/81
f 70/70/70 71/71/71 81/81/81
f 81/81/81 71/71/71 82/82/82
f 71/71/71 72/72/72 82/82/82
f 82/82/82 72/72/72 83/83/83
f 72/72/72 73/73/73 83/83/83
f 83/83/83 73/73/73 84/84/84
f 73/73/73 74/74/74 84/84/84
f 84/84/84 74/74/74 85/85/85
f 74/74/74 75/75/75 85/85/85
f 85/85/85 75/75/75 86/86/86
f 75/75/75 76/76/76 86/86/86
f 86/86/86 76/76/76 87/87/87
f 76/76/76 77/77/77 87/87/87
f 87/87/87 77/77/77 88/88/88
f 78/78/78 79/79/79 89/89/89
f 89/89/89 79/79/79 90/90/90
f 79/79/79 80/80/80 90/90/90
f 90/90/90 80/80/80 91/91/91
f 80/80/80 81/81/81 91/91/91
f 91/91/91 81/81/81 92/92/92
f 81/81/81 82/82/82 92/92/92
f 92/92/92 82/82/82 93/93/93
f 82/82/82 83/83/83 93/93/93
f 93/93/93 83/83/83 94/94/94
f 83/83/83 84/84/84 94/94/94
f 94/94/94 84/84/84 95/95/95
f 84/84/84 85/85/85 95/95/95
f 95/95/95 85/85/85 96/96/96
f 85/85/85 86/86/86 96/96/96
f 96/96/96 86/86/86 97/97/97
f 86/86/86 87/87/87 97/97/97
f 97/97/97 87/87/87 98/98/98
f 87/87/87 88/88/88 98/98/98
f 98/98/98 88/88/88 99/99/99
f 89/89/89 90/90/90 100/100/100
f 100/100/100 90/90/90 101/101/101
f 90/90/90 91/91/91 101/101/101
f 101/101/101 91/91/91 102/102/102
f 91/91/91 92/92/92 102/102/102
f 102/102/102 92/92/92 103/103/103
f 92/92/92 93/93/93 103/103/103
f 103/103/103 93/93/93 104/104/104
f 93/93/93 94/94/94 104/104/104
f 104/104/104 94/94/94 105/105/105
f 94/94/94 95/95/95 105/105/105
f 105/105/105 95/95/95 106/106/106
f 95/95/95 96/96/96 106/106/106
f 106/106/106 96/96/96 107/107/107
f 96/96/96 97/97/97 107/107/107
f 107/107/107 97/97/97 108/108/108
f 97/97/97 98/98/98 108/108/108
f 108/108/108 98/98/98 109/109/109
f 98/98/98 99/99/99 109/109/109
f 109/109/109 99/99/99 110/110/110
f 100/100/100 101/101/101 111/111/111
f 111/111/111 101/101/101 112/112/112
f 101/101/101 102/102/102 112/112/112
f 112/112/112 102/102/102 113/113/113
f 102/102/102 103/103/103 113/113/113
f 113/113/113 103/103/103 114/114/114
f 103/103/103 104/104/104 114/114/114
f 114/114/114 104/104/104 115/115/115
f 104/104/104 105/105/105 115/115/115
f 115/115/115 105/105/105 116/116/116
f 105/105/105 106/106/106 116/116/116
f 116/116/116 106/106/106 117/117/117
f 106/106/106 107/107/107 117/117/117
f 117/117/117 107/107/107 118/118/118
f 107/107/107 108/108/108 118/118/118
f 118/118/118 108/108/108 119/119/119
f 108/108/108 109/109/109 119/119/119
f 119/119/119 109/109/109 120/120/120
f 109/109/109 110/110/110 120/120/120
f 120/120/120 110/110/110 121/121/121
