# This file uses centimeters as units for non-parametric coordinates.

g default
v -606.756648 18.168610 -455.697928
v -476.712870 18.168610 -398.389215
v -346.669092 18.168610 -341.080502
v -216.625276 18.168610 -283.771772
v -86.581498 18.168610 -226.463059
v 43.462280 18.168610 -169.154346
v 173.506096 18.168610 -111.845616
v 303.549835 18.168610 -54.536921
v 433.593652 18.168610 2.771810
v 563.637468 18.168610 60.080540
v 693.681207 18.168610 117.389235
v -575.930803 49.882751 -525.647314
v -445.887025 49.882751 -468.338602
v -315.843248 49.882751 -411.029889
v -185.799431 49.882751 -353.721159
v -55.755653 49.882751 -296.412446
v 74.288124 49.882751 -239.103733
v 204.331941 49.882751 -181.795003
v 334.375680 49.882751 -124.486307
v 464.419497 49.882751 -67.177577
v 594.463313 49.882751 -9.868847
v 724.507052 49.882751 47.439849
v -545.104958 81.596892 -595.596701
v -415.061181 81.596892 -538.287988
v -285.017403 81.596892 -480.979275
v -154.973586 81.596892 -423.670545
v -24.929809 81.596892 -366.361832
v 105.113969 81.596892 -309.053119
v 235.157786 81.596892 -251.744389
v 365.201525 81.596892 -194.435693
v 495.245341 81.596892 -137.126963
v 625.289158 81.596892 -79.818233
v 755.332897 81.596892 -22.509537
v -514.279105 113.311043 -665.546108
v -384.235327 113.311043 -608.237395
v -254.191549 113.311043 -550.928682
v -124.147732 113.311043 -493.619952
v 5.896045 113.311043 -436.311239
v 135.939823 113.311043 -379.002526
v 265.983640 113.311043 -321.693796
v 396.027379 113.311043 -264.385100
v 526.071195 113.311043 -207.076370
v 656.115012 113.311043 -149.767640
v 786.158751 113.311043 -92.458944
v -483.453260 145.025184 -735.495494
v -353.409482 145.025184 -678.186781
v -223.365704 145.025184 -620.878068
v -93.321888 145.025184 -563.569338
v 36.721890 145.025184 -506.260625
v 166.765668 145.025184 -448.951912
v 296.809484 145.025184 -391.643182
v 426.853223 145.025184 -334.334486
v 556.897040 145.025184 -277.025756
v 686.940856 145.025184 -219.717026
v 816.984595 145.025184 -162.408331
v -452.627415 176.739326 -805.444880
v -322.583637 176.739326 -748.136168
v -192.539860 176.739326 -690.827455
v -62.496043 176.739326 -633.518725
v 67.547735 176.739326 -576.210012
v 197.591512 176.739326 -518.901299
v 327.635329 176.739326 -461.592569
v 457.679068 176.739326 -404.283873
v 587.722885 176.739326 -346.975143
v 717.766701 176.739326 -289.666413
v 847.810440 176.739326 -232.357717
v -421.801561 208.453476 -875.394288
v -291.757783 208.453476 -818.085575
v -161.714006 208.453476 -760.776862
v -31.670189 208.453476 -703.468132
v 98.373589 208.453476 -646.159419
v 228.417366 208.453476 -588.850706
v 358.461183 208.453476 -531.541976
v 488.504922 208.453476 -474.233280
v 618.548738 208.453476 -416.924550
v 748.592555 208.453476 -359.615820
v 878.636294 208.453476 -302.307124
v -390.975726 240.167608 -945.343653
v -260.931948 240.167608 -888.034940
v -130.888170 240.167608 -830.726227
v -0.844354 240.167608 -773.417497
v 129.199424 240.167608 -716.108784
v 259.243202 240.167608 -658.800071
v 389.287018 240.167608 -601.491341
v 519.330757 240.167608 -544.182645
v 649.374574 240.167608 -486.873915
v 779.418391 240.167608 -429.565185
v 909.462130 240.167608 -372.256489
v -360.149872 271.881759 -1015.293060
v -230.106094 271.881759 -957.984347
v -100.062316 271.881759 -900.675634
v 29.981500 271.881759 -843.366904
v 160.025278 271.881759 -786.058191
v 290.069056 271.881759 -728.749478
v 420.112872 271.881759 -671.440748
v 550.156611 271.881759 -614.132052
v 680.200428 271.881759 -556.823322
v 810.244244 271.881759 -499.514592
v 940.287983 271.881759 -442.205897
v -329.324018 303.595910 -1085.242467
v -199.280240 303.595910 -1027.933754
v -69.236462 303.595910 -970.625041
v 60.807354 303.595910 -913.316311
v 190.851132 303.595910 -856.007598
v 320.894910 303.595910 -798.698886
v 450.938726 303.595910 -741.390155
v 580.982465 303.595910 -684.081460
v 711.026282 303.595910 -626.772730
v 841.070098 303.595910 -569.464000
v 971.113837 303.595910 -512.155304
v -298.498182 335.310042 -1155.191833
v -168.454405 335.310042 -1097.883120
v -38.410627 335.310042 -1040.574407
v 91.633190 335.310042 -983.265677
v 221.676967 335.310042 -925.956964
v 351.720745 335.310042 -868.648251
v 481.764562 335.310042 -811.339521
v 611.808301 335.310042 -754.030825
v 741.852117 335.310042 -696.722095
v 871.895934 335.310042 -639.413365
v 1001.939673 335.310042 -582.104669
vt 0.000000 0.000000
vt 0.100000 0.000000
vt 0.200000 0.000000
vt 0.300000 0.000000
vt 0.400000 0.000000
vt 0.500000 0.000000
vt 0.600000 0.000000
vt 0.700000 0.000000
vt 0.800000 0.000000
vt 0.900000 0.000000
vt 1.000000 0.000000
vt 0.000000 0.100000
vt 0.100000 0.100000
vt 0.200000 0.100000
vt 0.300000 0.100000
vt 0.400000 0.100000
vt 0.500000 0.100000
vt 0.600000 0.100000
vt 0.700000 0.100000
vt 0.800000 0.100000
vt 0.900000 0.100000
vt 1.000000 0.100000
vt 0.000000 0.200000
vt 0.100000 0.200000
vt 0.200000 0.200000
vt 0.300000 0.200000
vt 0.400000 0.200000
vt 0.500000 0.200000
vt 0.600000 0.200000
vt 0.700000 0.200000
vt 0.800000 0.200000
vt 0.900000 0.200000
vt 1.000000 0.200000
vt 0.000000 0.300000
vt 0.100000 0.300000
vt 0.200000 0.300000
vt 0.300000 0.300000
vt 0.400000 0.300000
vt 0.500000 0.300000
vt 0.600000 0.300000
vt 0.700000 0.300000
vt 0.800000 0.300000
vt 0.900000 0.300000
vt 1.000000 0.300000
vt 0.000000 0.400000
vt 0.100000 0.400000
vt 0.200000 0.400000
vt 0.300000 0.400000
vt 0.400000 0.400000
vt 0.500000 0.400000
vt 0.600000 0.400000
vt 0.700000 0.400000
vt 0.800000 0.400000
vt 0.900000 0.400000
vt 1.000000 0.400000
vt 0.000000 0.500000
vt 0.100000 0.500000
vt 0.200000 0.500000
vt 0.300000 0.500000
vt 0.400000 0.500000
vt 0.500000 0.500000
vt 0.600000 0.500000
vt 0.700000 0.500000
vt 0.800000 0.500000
vt 0.900000 0.500000
vt 1.000000 0.500000
vt 0.000000 0.600000
vt 0.100000 0.600000
vt 0.200000 0.600000
vt 0.300000 0.600000
vt 0.400000 0.600000
vt 0.500000 0.600000
vt 0.600000 0.600000
vt 0.700000 0.600000
vt 0.800000 0.600000
vt 0.900000 0.600000
vt 1.000000 0.600000
vt 0.000000 0.700000
vt 0.100000 0.700000
vt 0.200000 0.700000
vt 0.300000 0.700000
vt 0.400000 0.700000
vt 0.500000 0.700000
vt 0.600000 0.700000
vt 0.700000 0.700000
vt 0.800000 0.700000
vt 0.900000 0.700000
vt 1.000000 0.700000
vt 0.000000 0.800000
vt 0.100000 0.800000
vt 0.200000 0.800000
vt 0.300000 0.800000
vt 0.400000 0.800000
vt 0.500000 0.800000
vt 0.600000 0.800000
vt 0.700000 0.800000
vt 0.800000 0.800000
vt 0.900000 0.800000
vt 1.000000 0.800000
vt 0.000000 0.900000
vt 0.100000 0.900000
vt 0.200000 0.900000
vt 0.300000 0.900000
vt 0.400000 0.900000
vt 0.500000 0.900000
vt 0.600000 0.900000
vt 0.700000 0.900000
vt 0.800000 0.900000
vt 0.900000 0.900000
vt 1.000000 0.900000
vt 0.000000 1.000000
vt 0.100000 1.000000
vt 0.200000 1.000000
vt 0.300000 1.000000
vt 0.400000 1.000000
vt 0.500000 1.000000
vt 0.600000 1.000000
vt 0.700000 1.000000
vt 0.800000 1.000000
vt 0.900000 1.000000
vt 1.000000 1.000000
vn -0.154537 0.923660 0.350673
vn -0.154537 0.923660 0.350673
vn -0.154537 0.923660 0.350673
vn -0.154537 0.923660 0.350673
vn -0.154537 0.923660 0.350673
vn -0.154537 0.923660 0.350673
vn -0.154537 0.923660 0.350673
vn -0.154537 0.923660 0.350673
vn -0.154537 0.923660 0.350673
vn -0.154537 0.923660 0.350673
vn -0.154537 0.923660 0.350673
vn -0.154537 0.923660 0.350673
vn -0.154537 0.923660 0.350673
vn -0.154537 0.923660 0.350673
vn -0.154537 0.923660 0.350673
vn -0.154537 0.923660 0.350673
vn -0.154537 0.923660 0.350673
vn -0.154537 0.923660 0.350673
vn -0.154537 0.923660 0.350673
vn -0.154537 0.923660 0.350673
vn -0.154537 0.923660 0.350673
vn -0.154537 0.923660 0.350673
vn -0.154537 0.923660 0.350673
vn -0.154537 0.923660 0.350673
vn -0.154537 0.923660 0.350673
vn -0.154537 0.923660 0.350673
vn -0.154537 0.923660 0.350673
vn -0.154537 0.923660 0.350673
vn -0.154537 0.923660 0.350673
vn -0.154537 0.923660 0.350673
vn -0.154537 0.923660 0.350673
vn -0.154537 0.923660 0.350673
vn -0.154537 0.923660 0.350673
vn -0.154537 0.923660 0.350673
vn -0.154537 0.923660 0.350673
vn -0.154537 0.923660 0.350673
vn -0.154537 0.923660 0.350673
vn -0.154537 0.923660 0.350673
vn -0.154537 0.923660 0.350673
vn -0.154537 0.923660 0.350673
vn -0.154537 0.923660 0.350673
vn -0.154537 0.923660 0.350673
vn -0.154537 0.923660 0.350673
vn -0.154537 0.923660 0.350673
vn -0.154537 0.923660 0.350673
vn -0.154537 0.923660 0.350673
vn -0.154537 0.923660 0.350673
vn -0.154537 0.923660 0.350673
vn -0.154537 0.923660 0.350673
vn -0.154537 0.923660 0.350673
vn -0.154537 0.923660 0.350673
vn -0.154537 0.923660 0.350673
vn -0.154537 0.923660 0.350673
vn -0.154537 0.923660 0.350673
vn -0.154537 0.923660 0.350673
vn -0.154537 0.923660 0.350673
vn -0.154537 0.923660 0.350673
vn -0.154537 0.923660 0.350673
vn -0.154537 0.923660 0.350673
vn -0.154537 0.923660 0.350673
vn -0.154537 0.923660 0.350673
vn -0.154537 0.923660 0.350673
vn -0.154537 0.923660 0.350673
vn -0.154537 0.923660 0.350673
vn -0.154537 0.923660 0.350673
vn -0.154537 0.923660 0.350673
vn -0.154537 0.923660 0.350673
vn -0.154537 0.923660 0.350673
vn -0.154537 0.923660 0.350673
vn -0.154537 0.923660 0.350673
vn -0.154537 0.923660 0.350673
vn -0.154537 0.923660 0.350673
vn -0.154537 0.923660 0.350673
vn -0.154537 0.923660 0.350673
vn -0.154537 0.923660 0.350673
vn -0.154537 0.923660 0.350673
vn -0.154537 0.923660 0.350673
vn -0.154537 0.923660 0.350673
vn -0.154537 0.923660 0.350673
vn -0.154537 0.923660 0.350673
vn -0.154537 0.923660 0.350673
vn -0.154537 0.923660 0.350673
vn -0.154537 0.923660 0.350673
vn -0.154537 0.923660 0.350673
vn -0.154537 0.923660 0.350673
vn -0.154537 0.923660 0.350673
vn -0.154537 0.923660 0.350673
vn -0.154537 0.923660 0.350673
vn -0.154537 0.923660 0.350673
vn -0.154537 0.923660 0.350673
vn -0.154537 0.923660 0.350673
vn -0.154537 0.923660 0.350673
vn -0.154537 0.923660 0.350673
vn -0.154537 0.923660 0.350673
vn -0.154537 0.923660 0.350673
vn -0.154537 0.923660 0.350673
vn -0.154537 0.923660 0.350673
vn -0.154537 0.923660 0.350673
vn -0.154537 0.923660 0.350673
vn -0.154537 0.923660 0.350673
vn -0.154537 0.923660 0.350673
vn -0.154537 0.923660 0.350673
vn -0.154537 0.923660 0.350673
vn -0.154537 0.923660 0.350673
vn -0.154537 0.923660 0.350673
vn -0.154537 0.923660 0.350673
vn -0.154537 0.923660 0.350673
vn -0.154537 0.923660 0.350673
vn -0.154537 0.923660 0.350673
vn -0.154537 0.923660 0.350673
vn -0.154537 0.923660 0.350673
vn -0.154537 0.923660 0.350673
vn -0.154537 0.923660 0.350673
vn -0.154537 0.923660 0.350673
vn -0.154537 0.923660 0.350673
vn -0.154537 0.923660 0.350673
vn -0.154537 0.923660 0.350673
vn -0.154537 0.923660 0.350673
vn -0.154537 0.923660 0.350673
vn -0.154537 0.923660 0.350673
vn -0.154537 0.923660 0.350673
s 1
g pPlane5
f 1/1/1 2/2/2 12/12/3
f 12/12/3 2/2/2 13/13/4
f 2/2/2 3/3/5 13/13/4
f 13/13/4 3/3/5 14/14/6
f 3/3/5 4/4/7 14/14/6
f 14/14/6 4/4/7 15/15/8
f 4/4/7 5/5/9 15/15/8
f 15/15/8 5/5/9 16/16/10
f 5/5/9 6/6/11 16/16/10
f 16/16/10 6/6/11 17/17/12
f 6/6/11 7/7/13 17/17/12
f 17/17/12 7/7/13 18/18/14
f 7/7/13 8/8/15 18/18/14
f 18/18/14 8/8/15 19/19/16
f 8/8/15 9/9/17 19/19/16
f 19/19/16 9/9/17 20/20/18
f 9/9/17 10/10/19 20/20/18
f 20/20/18 10/10/19 21/21/20
f 10/10/19 11/11/21 21/21/20
f 21/21/20 11/11/21 22/22/22
f 12/12/3 13/13/4 23/23/23
f 23/23/23 13/13/4 24/24/24
f 13/13/4 14/14/6 24/24/24
f 24/24/24 14/14/6 25/25/25
f 14/14/6 15/15/8 25/25/25
f 25/25/25 15/15/8 26/26/26
f 15/15/8 16/16/10 26/26/26
f 26/26/26 16/16/10 27/27/27
f 16/16/10 17/17/12 27/27/27
f 27/27/27 17/17/12 28/28/28
f 17/17/12 18/18/14 28/28/28
f 28/28/28 18/18/14 29/29/29
f 18/18/14 19/19/16 29/29/29
f 29/29/29 19/19/16 30/30/30
f 19/19/16 20/20/18 30/30/30
f 30/30/30 20/20/18 31/31/31
f 20/20/18 21/21/20 31/31/31
f 31/31/31 21/21/20 32/32/32
f 21/21/20 22/22/22 32/32/32
f 32/32/32 22/22/22 33/33/33
f 23/23/23 24/24/24 34/34/34
f 34/34/34 24/24/24 35/35/35
f 24/24/24 25/25/25 35/35/35
f 35/35/35 25/25/25 36/36/36
f 25/25/25 26/26/26 36/36/36
f 36/36/36 26/26/26 37/37/37
f 26/26/26 27/27/27 37/37/37
f 37/37/37 27/27/27 38/38/38
f 27/27/27 28/28/28 38/38/38
f 38/38/38 28/28/28 39/39/39
f 28/28/28 29/29/29 39/39/39
f 39/39/39 29/29/29 40/40/40
f 29/29/29 30/30/30 40/40/40
f 40/40/40 30/30/30 41/41/41
f 30/30/30 31/31/31 41/41/41
f 41/41/41 31/31/31 42/42/42
f 31/31/31 32/32/32 42/42/42
f 42/42/42 32/32/32 43/43/43
f 32/32/32 33/33/33 43/43/43
f 43/43/43 33/33/33 44/44/44
f 34/34/34 35/35/35 45/45/45
f 45/45/45 35/35/35 46/46/46
f 35/35/35 36/36/36 46/46/46
f 46/46/46 36/36/36 47/47/47
f 36/36/36 37/37/37 47/47/47
f 47/47/47 37/37/37 48/48/48
f 37/37/37 38/38/38 48/48/48
f 48/48/48 38/38/38 49/49/49
f 38/38/38 39/39/39 49/49/49
f 49/49/49 39/39/39 50/50/50
f 39/39/39 40/40/40 50/50/50
f 50/50/50 40/40/40 51/51/51
f 40/40/40 41/41/41 51/51/51
f 51/51/51 41/41/41 52/52/52
f 41/41/41 42/42/42 52/52/52
f 52/52/52 42/42/42 53/53/53
f 42/42/42 43/43/43 53/53/53
f 53/53/53 43/43/43 54/54/54
f 43/43/43 44/44/44 54/54/54
f 54/54/54 44/44/44 55/55/55
f 45/45/45 46/46/46 56/56/56
f 56/56/56 46/46/46 57/57/57
f 46/46/46 47/47/47 57/57/57
f 57/57/57 47/47/47 58/58/58
f 47/47/47 48/48/48 58/58/58
f 58/58/58 48/48/48 59/59/59
f 48/48/48 49/49/49 59/59/59
f 59/59/59 49/49/49 60/60/60
f 49/49/49 50/50/50 60/60/60
f 60/60/60 50/50/50 61/61/61
f 50/50/50 51/51/51 61/61/61
f 61/61/61 51/51/51 62/62/62
f 51/51/51 52/52/52 62/62/62
f 62/62/62 52/52/52 63/63/63
f 52/52/52 53/53/53 63/63/63
f 63/63/63 53/53/53 64/64/64
f 53/53/53 54/54/54 64/64/64
f 64/64/64 54/54/54 65/65/65
f 54/54/54 55/55/55 65/65/65
f 65/65/65 55/55/55 66/66/66
f 56/56/56 57/57/57 67/67/67
f 67/67/67 57/57/57 68/68/68
f 57/57/57 58/58/58 68/68/68
f 68/68/68 58/58/58 69/69/69
f 58/58/58 59/59/59 69/69/69
f 69/69/69 59/59/59 70/70/70
f 59/59/59 60/60/60 70/70/70
f 70/70/70 60/60/60 71/71/71
f 60/60/60 61/61/61 71/71/71
f 71/71/71 61/61/61 72/72/72
f 61/61/61 62/62/62 72/72/72
f 72/72/72 62/62/62 73/73/73
f 62/62/62 63/63/63 73/73/73
f 73/73/73 63/63/63 74/74/74
f 63/63/63 64/64/64 74/74/74
f 74/74/74 64/64/64 75/75/75
f 64/64/64 65/65/65 75/75/75
f 75/75/75 65/65/65 76/76/76
f 65/65/65 66/66/66 76/76/76
f 76/76/76 66/66/66 77/77/77
f 67/67/67 68/68/68 78/78/78
f 78/78/78 68/68/68 79/79/79
f 68/68/68 69/69/69 79/79/79
f 79/79/79 69/69/69 80/80/80
f 69/69/69 70/70/70 80/80/80
f 80/80/80 70/70/70 81/81/81
f 70/70/70 71/71/71 81/81/81
f 81/81/81 71/71/71 82/82/82
f 71/71/71 72/72/72 82/82/82
f 82/82/82 72/72/72 83/83/83
f 72/72/72 73/73/73 83/83/83
f 83/83/83 73/73/73 84/84/84
f 73/73/73 74/74/74 84/84/84
f 84/84/84 74/74/74 85/85/85
f 74/74/74 75/75/75 85/85/85
f 85/85/85 75/75/75 86/86/86
f 75/75/75 76/76/76 86/86/86
f 86/86/86 76/76/76 87/87/87
f 76/76/76 77/77/77 87/87/87
f 87/87/87 77/77/77 88/88/88
f 78/78/78 79/79/79 89/89/89
f 89/89/89 79/79/79 90/90/90
f 79/79/79 80/80/80 90/90/90
f 90/90/90 80/80/80 91/91/91
f 80/80/80 81/81/81 91/91/91
f 91/91/91 81/81/81 92/92/92
f 81/81/81 82/82/82 92/92/92
f 92/92/92 82/82/82 93/93/93
f 82/82/82 83/83/83 93/93/93
f 93/93/93 83/83/83 94/94/94
f 83/83/83 84/84/84 94/94/94
f 94/94/94 84/84/84 95/95/95
f 84/84/84 85/85/85 95/95/95
f 95/95/95 85/85/85 96/96/96
f 85/85/85 86/86/86 96/96/96
f 96/96/96 86/86/86 97/97/97
f 86/86/86 87/87/87 97/97/97
f 97/97/97 87/87/87 98/98/98
f 87/87/87 88/88/88 98/98/98
f 98/98/98 88/88/88 99/99/99
f 89/89/89 90/90/90 100/100/100
f 100/100/100 90/90/90 101/101/101
f 90/90/90 91/91/91 101/101/101
f 101/101/101 91/91/91 102/102/102
f 91/91/91 92/92/92 102/102/102
f 102/102/102 92/92/92 103/103/103
f 92/92/92 93/93/93 103/103/103
f 103/103/103 93/93/93 104/104/104
f 93/93/93 94/94/94 104/104/104
f 104/104/104 94/94/94 105/105/105
f 94/94/94 95/95/95 105/105/105
f 105/105/105 95/95/95 106/106/106
f 95/95/95 96/96/96 106/106/106
f 106/106/106 96/96/96 107/107/107
f 96/96/96 97/97/97 107/107/107
f 107/107/107 97/97/97 108/108/108
f 97/97/97 98/98/98 108/108/108
f 108/108/108 98/98/98 109/109/109
f 98/98/98 99/99/99 109/109/109
f 109/109/109 99/99/99 110/110/110
f 100/100/100 101/101/101 111/111/111
f 111/111/111 101/101/101 112/112/112
f 101/101/101 102/102/102 112/112/112
f 112/112/112 102/102/102 113/113/113
f 102/102/102 103/103/103 113/113/113
f 113/113/113 103/103/103 114/114/114
f 103/103/103 104/104/104 114/114/114
f 114/114/114 104/104/104 115/115/115
f 104/104/104 105/105/105 115/115/115
f 115/115/115 105/105/105 116/116/116
f 105/105/105 106/106/106 116/116/116
f 116/116/116 106/106/106 117/117/117
f 106/106/106 107/107/107 117/117/117
f 117/117/117 107/107/107 118/118/118
f 107/107/107 108/108/108 118/118/118
f 118/118/118 108/108/108 119/119/119
f 108/108/108 109/109/109 119/119/119
f 119/119/119 109/109/109 120/120/120
f 109/109/109 110/110/110 120/120/120
f 120/120/120 110/110/110 121/121/121
