# This file uses centimeters as units for non-parametric coordinates.

g default
v -249.452664 153.797287 230.144980
v -199.454897 154.267066 230.096432
v -149.457131 154.736845 230.047885
v -99.459349 155.206624 229.999337
v -49.461583 155.676403 229.950789
v 0.536184 156.146182 229.902242
v 50.533965 156.615961 229.853694
v 100.531717 157.085740 229.805146
v 150.529498 157.555519 229.756599
v 200.527279 158.025298 229.708051
v 250.525031 158.495077 229.659503
v -249.559900 160.458618 184.164534
v -199.562134 160.928397 184.115987
v -149.564367 161.398176 184.067439
v -99.566586 161.867955 184.018891
v -49.568820 162.337734 183.970344
v 0.428947 162.807513 183.921796
v 50.426728 163.277292 183.873248
v 100.424480 163.747071 183.824701
v 150.422261 164.216850 183.776153
v 200.420043 164.686629 183.727605
v 250.417794 165.156408 183.679058
v -249.667137 167.119949 138.184089
v -199.669371 167.589728 138.135541
v -149.671604 168.059507 138.086993
v -99.673823 168.529286 138.038446
v -49.676056 168.999065 137.989898
v 0.321710 169.468844 137.941350
v 50.319492 169.938623 137.892803
v 100.317243 170.408402 137.844255
v 150.315025 170.878181 137.795707
v 200.312806 171.347960 137.747160
v 250.310557 171.817739 137.698612
v -249.774374 173.781282 92.203629
v -199.776607 174.251061 92.155082
v -149.778841 174.720840 92.106534
v -99.781060 175.190619 92.057986
v -49.783293 175.660398 92.009439
v 0.214473 176.130177 91.960891
v 50.212255 176.599956 91.912343
v 100.210006 177.069734 91.863796
v 150.207788 177.539514 91.815248
v 200.205569 178.009293 91.766700
v 250.203321 178.479071 91.718153
v -249.881611 180.442613 46.223184
v -199.883844 180.912392 46.174636
v -149.886078 181.382170 46.126089
v -99.888296 181.851950 46.077541
v -49.890530 182.321728 46.028993
v 0.107237 182.791507 45.980446
v 50.105018 183.261287 45.931898
v 100.102770 183.731065 45.883350
v 150.100551 184.200844 45.834803
v 200.098332 184.670624 45.786255
v 250.096084 185.140402 45.737707
v -249.988847 187.103943 0.242738
v -199.991081 187.573722 0.194191
v -149.993314 188.043501 0.145643
v -99.995533 188.513280 0.097095
v -49.997766 188.983059 0.048548
v 0.000000 189.452838 0.000000
v 49.997781 189.922617 -0.048548
v 99.995533 190.392396 -0.097095
v 149.993314 190.862175 -0.145643
v 199.991096 191.331954 -0.194191
v 249.988847 191.801733 -0.242738
v -250.096084 193.765276 -45.737721
v -200.098318 194.235055 -45.786269
v -150.100551 194.704834 -45.834816
v -100.102770 195.174613 -45.883364
v -50.105003 195.644392 -45.931912
v -0.107237 196.114171 -45.980459
v 49.890545 196.583950 -46.029007
v 99.888296 197.053729 -46.077555
v 149.886078 197.523508 -46.126102
v 199.883859 197.993287 -46.174650
v 249.881611 198.463066 -46.223198
v -250.203321 200.426605 -91.718153
v -200.205554 200.896384 -91.766700
v -150.207788 201.366163 -91.815248
v -100.210006 201.835942 -91.863796
v -50.212240 202.305721 -91.912343
v -0.214473 202.775500 -91.960891
v 49.783308 203.245279 -92.009439
v 99.781060 203.715058 -92.057986
v 149.778841 204.184837 -92.106534
v 199.776622 204.654616 -92.155082
v 249.774374 205.124395 -92.203629
v -250.310557 207.087938 -137.698612
v -200.312791 207.557717 -137.747160
v -150.315025 208.027496 -137.795707
v -100.317243 208.497275 -137.844255
v -50.319477 208.967054 -137.892803
v -0.321710 209.436833 -137.941350
v 49.676071 209.906612 -137.989898
v 99.673823 210.376391 -138.038446
v 149.671604 210.846170 -138.086993
v 199.669386 211.315949 -138.135541
v 249.667137 211.785728 -138.184089
v -250.417794 213.749271 -183.679071
v -200.420028 214.219050 -183.727619
v -150.422261 214.688829 -183.776167
v -100.424480 215.158608 -183.824714
v -50.426713 215.628387 -183.873262
v -0.428947 216.098166 -183.921810
v 49.568834 216.567945 -183.970357
v 99.566586 217.037723 -184.018905
v 149.564367 217.507503 -184.067453
v 199.562149 217.977282 -184.116000
v 249.559900 218.447060 -184.164548
v -250.525031 220.410600 -229.659503
v -200.527264 220.880379 -229.708051
v -150.529498 221.350157 -229.756599
v -100.531717 221.819937 -229.805146
v -50.533950 222.289716 -229.853694
v -0.536184 222.759494 -229.902242
v 49.461598 223.229274 -229.950789
v 99.459349 223.699052 -229.999337
v 149.457131 224.168831 -230.047885
v 199.454912 224.638611 -230.096432
v 249.452664 225.108389 -230.144980
vt 0.000000 0.000000
vt 0.100000 0.000000
vt 0.200000 0.000000
vt 0.300000 0.000000
vt 0.400000 0.000000
vt 0.500000 0.000000
vt 0.600000 0.000000
vt 0.700000 0.000000
vt 0.800000 0.000000
vt 0.900000 0.000000
vt 1.000000 0.000000
vt 0.000000 0.100000
vt 0.100000 0.100000
vt 0.200000 0.100000
vt 0.300000 0.100000
vt 0.400000 0.100000
vt 0.500000 0.100000
vt 0.600000 0.100000
vt 0.700000 0.100000
vt 0.800000 0.100000
vt 0.900000 0.100000
vt 1.000000 0.100000
vt 0.000000 0.200000
vt 0.100000 0.200000
vt 0.200000 0.200000
vt 0.300000 0.200000
vt 0.400000 0.200000
vt 0.500000 0.200000
vt 0.600000 0.200000
vt 0.700000 0.200000
vt 0.800000 0.200000
vt 0.900000 0.200000
vt 1.000000 0.200000
vt 0.000000 0.300000
vt 0.100000 0.300000
vt 0.200000 0.300000
vt 0.300000 0.300000
vt 0.400000 0.300000
vt 0.500000 0.300000
vt 0.600000 0.300000
vt 0.700000 0.300000
vt 0.800000 0.300000
vt 0.900000 0.300000
vt 1.000000 0.300000
vt 0.000000 0.400000
vt 0.100000 0.400000
vt 0.200000 0.400000
vt 0.300000 0.400000
vt 0.400000 0.400000
vt 0.500000 0.400000
vt 0.600000 0.400000
vt 0.700000 0.400000
vt 0.800000 0.400000
vt 0.900000 0.400000
vt 1.000000 0.400000
vt 0.000000 0.500000
vt 0.100000 0.500000
vt 0.200000 0.500000
vt 0.300000 0.500000
vt 0.400000 0.500000
vt 0.500000 0.500000
vt 0.600000 0.500000
vt 0.700000 0.500000
vt 0.800000 0.500000
vt 0.900000 0.500000
vt 1.000000 0.500000
vt 0.000000 0.600000
vt 0.100000 0.600000
vt 0.200000 0.600000
vt 0.300000 0.600000
vt 0.400000 0.600000
vt 0.500000 0.600000
vt 0.600000 0.600000
vt 0.700000 0.600000
vt 0.800000 0.600000
vt 0.900000 0.600000
vt 1.000000 0.600000
vt 0.000000 0.700000
vt 0.100000 0.700000
vt 0.200000 0.700000
vt 0.300000 0.700000
vt 0.400000 0.700000
vt 0.500000 0.700000
vt 0.600000 0.700000
vt 0.700000 0.700000
vt 0.800000 0.700000
vt 0.900000 0.700000
vt 1.000000 0.700000
vt 0.000000 0.800000
vt 0.100000 0.800000
vt 0.200000 0.800000
vt 0.300000 0.800000
vt 0.400000 0.800000
vt 0.500000 0.800000
vt 0.600000 0.800000
vt 0.700000 0.800000
vt 0.800000 0.800000
vt 0.900000 0.800000
vt 1.000000 0.800000
vt 0.000000 0.900000
vt 0.100000 0.900000
vt 0.200000 0.900000
vt 0.300000 0.900000
vt 0.400000 0.900000
vt 0.500000 0.900000
vt 0.600000 0.900000
vt 0.700000 0.900000
vt 0.800000 0.900000
vt 0.900000 0.900000
vt 1.000000 0.900000
vt 0.000000 1.000000
vt 0.100000 1.000000
vt 0.200000 1.000000
vt 0.300000 1.000000
vt 0.400000 1.000000
vt 0.500000 1.000000
vt 0.600000 1.000000
vt 0.700000 1.000000
vt 0.800000 1.000000
vt 0.900000 1.000000
vt 1.000000 1.000000
vn -0.009159 0.989624 0.143391
vn -0.009159 0.989624 0.143391
vn -0.009159 0.989624 0.143391
vn -0.009159 0.989624 0.143391
vn -0.009159 0.989624 0.143391
vn -0.009159 0.989624 0.143391
vn -0.009159 0.989624 0.143391
vn -0.009159 0.989624 0.143391
vn -0.009159 0.989624 0.143391
vn -0.009159 0.989624 0.143391
vn -0.009159 0.989624 0.143391
vn -0.009159 0.989624 0.143391
vn -0.009159 0.989624 0.143391
vn -0.009159 0.989624 0.143391
vn -0.009159 0.989624 0.143391
vn -0.009159 0.989624 0.143391
vn -0.009159 0.989624 0.143391
vn -0.009159 0.989624 0.143391
vn -0.009159 0.989624 0.143391
vn -0.009159 0.989624 0.143391
vn -0.009159 0.989624 0.143391
vn -0.009159 0.989624 0.143391
vn -0.009159 0.989624 0.143391
vn -0.009159 0.989624 0.143391
vn -0.009159 0.989624 0.143391
vn -0.009159 0.989624 0.143391
vn -0.009159 0.989624 0.143391
vn -0.009159 0.989624 0.143391
vn -0.009159 0.989624 0.143391
vn -0.009159 0.989624 0.143391
vn -0.009159 0.989624 0.143391
vn -0.009159 0.989624 0.143391
vn -0.009159 0.989624 0.143391
vn -0.009159 0.989624 0.143391
vn -0.009159 0.989624 0.143391
vn -0.009159 0.989624 0.143391
vn -0.009159 0.989624 0.143391
vn -0.009159 0.989624 0.143391
vn -0.009159 0.989624 0.143391
vn -0.009159 0.989624 0.143391
vn -0.009159 0.989624 0.143391
vn -0.009159 0.989624 0.143391
vn -0.009159 0.989624 0.143391
vn -0.009159 0.989624 0.143391
vn -0.009159 0.989624 0.143391
vn -0.009159 0.989624 0.143391
vn -0.009159 0.989624 0.143391
vn -0.009159 0.989624 0.143391
vn -0.009159 0.989624 0.143391
vn -0.009159 0.989624 0.143391
vn -0.009159 0.989624 0.143391
vn -0.009159 0.989624 0.143391
vn -0.009159 0.989624 0.143391
vn -0.009159 0.989624 0.143391
vn -0.009159 0.989624 0.143391
vn -0.009159 0.989624 0.143391
vn -0.009159 0.989624 0.143391
vn -0.009159 0.989624 0.143391
vn -0.009159 0.989624 0.143391
vn -0.009159 0.989624 0.143391
vn -0.009159 0.989624 0.143391
vn -0.009159 0.989624 0.143391
vn -0.009159 0.989624 0.143391
vn -0.009159 0.989624 0.143391
vn -0.009159 0.989624 0.143391
vn -0.009159 0.989624 0.143391
vn -0.009159 0.989624 0.143391
vn -0.009159 0.989624 0.143391
vn -0.009159 0.989624 0.143391
vn -0.009159 0.989624 0.143391
vn -0.009159 0.989624 0.143391
vn -0.009159 0.989624 0.143391
vn -0.009159 0.989624 0.143391
vn -0.009159 0.989624 0.143391
vn -0.009159 0.989624 0.143391
vn -0.009159 0.989624 0.143391
vn -0.009159 0.989624 0.143391
vn -0.009159 0.989624 0.143391
vn -0.009159 0.989624 0.143391
vn -0.009159 0.989624 0.143391
vn -0.009159 0.989624 0.143391
vn -0.009159 0.989624 0.143391
vn -0.009159 0.989624 0.143391
vn -0.009159 0.989624 0.143391
vn -0.009159 0.989624 0.143391
vn -0.009159 0.989624 0.143391
vn -0.009159 0.989624 0.143391
vn -0.009159 0.989624 0.143391
vn -0.009159 0.989624 0.143391
vn -0.009159 0.989624 0.143391
vn -0.009159 0.989624 0.143391
vn -0.009159 0.989624 0.143391
vn -0.009159 0.989624 0.143391
vn -0.009159 0.989624 0.143391
vn -0.009159 0.989624 0.143391
vn -0.009159 0.989624 0.143391
vn -0.009159 0.989624 0.143391
vn -0.009159 0.989624 0.143391
vn -0.009159 0.989624 0.143391
vn -0.009159 0.989624 0.143391
vn -0.009159 0.989624 0.143391
vn -0.009159 0.989624 0.143391
vn -0.009159 0.989624 0.143391
vn -0.009159 0.989624 0.143391
vn -0.009159 0.989624 0.143391
vn -0.009159 0.989624 0.143391
vn -0.009159 0.989624 0.143391
vn -0.009159 0.989624 0.143391
vn -0.009159 0.989624 0.143391
vn -0.009159 0.989624 0.143391
vn -0.009159 0.989624 0.143391
vn -0.009159 0.989624 0.143391
vn -0.009159 0.989624 0.143391
vn -0.009159 0.989624 0.143391
vn -0.009159 0.989624 0.143391
vn -0.009159 0.989624 0.143391
vn -0.009159 0.989624 0.143391
vn -0.009159 0.989624 0.143391
vn -0.009159 0.989624 0.143391
vn -0.009159 0.989624 0.143391
vn -0.009159 0.989624 0.143391
s 1
g pPlane6
f 1/1/1 2/2/2 13/13/3 12/12/4
f 2/2/2 3/3/5 14/14/6 13/13/3
f 3/3/5 4/4/7 15/15/8 14/14/6
f 4/4/7 5/5/9 16/16/10 15/15/8
f 5/5/9 6/6/11 17/17/12 16/16/10
f 6/6/11 7/7/13 18/18/14 17/17/12
f 7/7/13 8/8/15 19/19/16 18/18/14
f 8/8/15 9/9/17 20/20/18 19/19/16
f 9/9/17 10/10/19 21/21/20 20/20/18
f 10/10/19 11/11/21 22/22/22 21/21/20
f 12/12/4 13/13/3 24/24/23 23/23/24
f 13/13/3 14/14/6 25/25/25 24/24/23
f 14/14/6 15/15/8 26/26/26 25/25/25
f 15/15/8 16/16/10 27/27/27 26/26/26
f 16/16/10 17/17/12 28/28/28 27/27/27
f 17/17/12 18/18/14 29/29/29 28/28/28
f 18/18/14 19/19/16 30/30/30 29/29/29
f 19/19/16 20/20/18 31/31/31 30/30/30
f 20/20/18 21/21/20 32/32/32 31/31/31
f 21/21/20 22/22/22 33/33/33 32/32/32
f 23/23/24 24/24/23 35/35/34 34/34/35
f 24/24/23 25/25/25 36/36/36 35/35/34
f 25/25/25 26/26/26 37/37/37 36/36/36
f 26/26/26 27/27/27 38/38/38 37/37/37
f 27/27/27 28/28/28 39/39/39 38/38/38
f 28/28/28 29/29/29 40/40/40 39/39/39
f 29/29/29 30/30/30 41/41/41 40/40/40
f 30/30/30 31/31/31 42/42/42 41/41/41
f 31/31/31 32/32/32 43/43/43 42/42/42
f 32/32/32 33/33/33 44/44/44 43/43/43
f 34/34/35 35/35/34 46/46/45 45/45/46
f 35/35/34 36/36/36 47/47/47 46/46/45
f 36/36/36 37/37/37 48/48/48 47/47/47
f 37/37/37 38/38/38 49/49/49 48/48/48
f 38/38/38 39/39/39 50/50/50 49/49/49
f 39/39/39 40/40/40 51/51/51 50/50/50
f 40/40/40 41/41/41 52/52/52 51/51/51
f 41/41/41 42/42/42 53/53/53 52/52/52
f 42/42/42 43/43/43 54/54/54 53/53/53
f 43/43/43 44/44/44 55/55/55 54/54/54
f 45/45/46 46/46/45 57/57/56 56/56/57
f 46/46/45 47/47/47 58/58/58 57/57/56
f 47/47/47 48/48/48 59/59/59 58/58/58
f 48/48/48 49/49/49 60/60/60 59/59/59
f 49/49/49 50/50/50 61/61/61 60/60/60
f 50/50/50 51/51/51 62/62/62 61/61/61
f 51/51/51 52/52/52 63/63/63 62/62/62
f 52/52/52 53/53/53 64/64/64 63/63/63
f 53/53/53 54/54/54 65/65/65 64/64/64
f 54/54/54 55/55/55 66/66/66 65/65/65
f 56/56/57 57/57/56 68/68/67 67/67/68
f 57/57/56 58/58/58 69/69/69 68/68/67
f 58/58/58 59/59/59 70/70/70 69/69/69
f 59/59/59 60/60/60 71/71/71 70/70/70
f 60/60/60 61/61/61 72/72/72 71/71/71
f 61/61/61 62/62/62 73/73/73 72/72/72
f 62/62/62 63/63/63 74/74/74 73/73/73
f 63/63/63 64/64/64 75/75/75 74/74/74
f 64/64/64 65/65/65 76/76/76 75/75/75
f 65/65/65 66/66/66 77/77/77 76/76/76
f 67/67/68 68/68/67 79/79/78 78/78/79
f 68/68/67 69/69/69 80/80/80 79/79/78
f 69/69/69 70/70/70 81/81/81 80/80/80
f 70/70/70 71/71/71 82/82/82 81/81/81
f 71/71/71 72/72/72 83/83/83 82/82/82
f 72/72/72 73/73/73 84/84/84 83/83/83
f 73/73/73 74/74/74 85/85/85 84/84/84
f 74/74/74 75/75/75 86/86/86 85/85/85
f 75/75/75 76/76/76 87/87/87 86/86/86
f 76/76/76 77/77/77 88/88/88 87/87/87
f 78/78/79 79/79/78 90/90/89 89/89/90
f 79/79/78 80/80/80 91/91/91 90/90/89
f 80/80/80 81/81/81 92/92/92 91/91/91
f 81/81/81 82/82/82 93/93/93 92/92/92
f 82/82/82 83/83/83 94/94/94 93/93/93
f 83/83/83 84/84/84 95/95/95 94/94/94
f 84/84/84 85/85/85 96/96/96 95/95/95
f 85/85/85 86/86/86 97/97/97 96/96/96
f 86/86/86 87/87/87 98/98/98 97/97/97
f 87/87/87 88/88/88 99/99/99 98/98/98
f 89/89/90 90/90/89 101/101/100 100/100/101
f 90/90/89 91/91/91 102/102/102 101/101/100
f 91/91/91 92/92/92 103/103/103 102/102/102
f 92/92/92 93/93/93 104/104/104 103/103/103
f 93/93/93 94/94/94 105/105/105 104/104/104
f 94/94/94 95/95/95 106/106/106 105/105/105
f 95/95/95 96/96/96 107/107/107 106/106/106
f 96/96/96 97/97/97 108/108/108 107/107/107
f 97/97/97 98/98/98 109/109/109 108/108/108
f 98/98/98 99/99/99 110/110/110 109/109/109
f 100/100/101 101/101/100 112/112/111 111/111/112
f 101/101/100 102/102/102 113/113/113 112/112/111
f 102/102/102 103/103/103 114/114/114 113/113/113
f 103/103/103 104/104/104 115/115/115 114/114/114
f 104/104/104 105/105/105 116/116/116 115/115/115
f 105/105/105 106/106/106 117/117/117 116/116/116
f 106/106/106 107/107/107 118/118/118 117/117/117
f 107/107/107 108/108/108 119/119/119 118/118/118
f 108/108/108 109/109/109 120/120/120 119/119/119
f 109/109/109 110/110/110 121/121/121 120/120/120
